<svg version="1.1" xmlns="http://www.w3.org/2000/svg" viewBox="0 0 4722.513239929804 2467.024581880176" width="4722.513239929804" height="2467.024581880176">
  <!-- svg-source:excalidraw -->
  
  <defs>
    <style class="style-fonts">
      @font-face {
        font-family: "Virgil";
        src: url("https://excalidraw.com/Virgil.woff2");
      }
      @font-face {
        font-family: "Cascadia";
        src: url("https://excalidraw.com/Cascadia.woff2");
      }
    </style>
    
  </defs>
  <rect x="0" y="0" width="4722.513239929804" height="2467.024581880176" fill="#ffffff"></rect><g stroke-linecap="round" transform="translate(1185.1142821531398 1042.6092996283564) rotate(0 348.28420881294994 430.2124753572481)"><path d="M32 0 M32 0 C281.77 -0.7, 530.08 -1.6, 664.57 0 M32 0 C239.34 0.26, 447.35 0.32, 664.57 0 M664.57 0 C687.07 1.03, 696.86 9.66, 696.57 32 M664.57 0 C685.57 -1.72, 697.86 12.17, 696.57 32 M696.57 32 C697.76 297.09, 698.09 560.64, 696.57 828.42 M696.57 32 C697.72 284.03, 698.23 535.54, 696.57 828.42 M696.57 828.42 C697.37 851.66, 686.18 861.12, 664.57 860.42 M696.57 828.42 C694.85 850.92, 685.28 862.24, 664.57 860.42 M664.57 860.42 C477.56 861.63, 290.01 860.96, 32 860.42 M664.57 860.42 C458.32 859.26, 253.03 859.1, 32 860.42 M32 860.42 C12.47 861.41, -1.14 851.72, 0 828.42 M32 860.42 C11.85 859.17, 0.83 849.15, 0 828.42 M0 828.42 C2.59 528.16, 2.38 228.17, 0 32 M0 828.42 C-0.81 570.4, -1.43 312.43, 0 32 M0 32 C0.48 8.76, 11.15 -0.76, 32 0 M0 32 C-0.85 10.62, 10.44 0.74, 32 0" stroke="#1e1e1e" stroke-width="1" fill="none"></path></g><g stroke-linecap="round" transform="translate(1034.5179422385197 518.3862290062809) rotate(0 1200.3724882576078 733.8770188873525)"><path d="M32 0 M32 0 C514.38 -1.05, 995.04 -0.28, 2368.74 0 M32 0 C912.12 -8.13, 1792.61 -7.96, 2368.74 0 M2368.74 0 C2389.25 -0.46, 2399.75 11.31, 2400.74 32 M2368.74 0 C2392.36 -1.85, 2401.5 9.89, 2400.74 32 M2400.74 32 C2399.47 373.31, 2398.47 713.7, 2400.74 1435.75 M2400.74 32 C2395.37 477.23, 2394.96 922.67, 2400.74 1435.75 M2400.74 1435.75 C2399.7 1457.88, 2389.99 1465.92, 2368.74 1467.75 M2400.74 1435.75 C2401.37 1455.69, 2388.15 1468.28, 2368.74 1467.75 M2368.74 1467.75 C1596.09 1470.49, 824 1470.84, 32 1467.75 M2368.74 1467.75 C1837.98 1463.18, 1306.48 1463.39, 32 1467.75 M32 1467.75 C12.47 1468.68, 1.3 1456.89, 0 1435.75 M32 1467.75 C10.05 1465.57, -0.51 1454.83, 0 1435.75 M0 1435.75 C-6.02 917.63, -5.5 400.2, 0 32 M0 1435.75 C0.03 947.42, 0.01 459.7, 0 32 M0 32 C-0.49 9.14, 8.92 -0.57, 32 0 M0 32 C-1.42 12.93, 9.49 2.07, 32 0" stroke="#1e1e1e" stroke-width="1" fill="none"></path></g><g stroke-linecap="round"><g transform="translate(3391.6474886906626 535.4531364222657) rotate(0 120.51143468835244 -44.612460577203024)"><path d="M-0.16 0.85 C40.31 -13.77, 202.42 -73.3, 242.72 -88.35 M-1.7 0.25 C38.62 -14.65, 200.83 -75.3, 241.77 -90.07" stroke="#1e1e1e" stroke-width="1" fill="none"></path></g><g transform="translate(3391.6474886906626 535.4531364222657) rotate(0 120.51143468835244 -44.612460577203024)"><path d="M220.27 -70.71 C226.94 -78.15, 231.73 -83.6, 240.48 -91.02 M218.32 -70.28 C224.64 -75.88, 228.88 -78.89, 241.26 -90.09" stroke="#1e1e1e" stroke-width="1" fill="none"></path></g><g transform="translate(3391.6474886906626 535.4531364222657) rotate(0 120.51143468835244 -44.612460577203024)"><path d="M213.18 -89.97 C221.81 -91.79, 228.67 -91.62, 240.48 -91.02 M211.22 -89.54 C219.18 -90.94, 224.96 -89.77, 241.26 -90.09" stroke="#1e1e1e" stroke-width="1" fill="none"></path></g></g><mask></mask><g transform="translate(3657.1327151615387 336.3392165691082) rotate(0 148.52615356445312 42.84116873952874)"><text x="0" y="0" font-family="Virgil, Segoe UI Emoji" font-size="68.54586998324598px" fill="#1e1e1e" text-anchor="start" style="white-space: pre;" direction="ltr" dominant-baseline="text-before-edge">ToDoApp</text></g><g transform="translate(1853.7294982057972 588.5501817164411) rotate(0 219.11935424804688 53.38499982976302)"><text x="0" y="0" font-family="Virgil, Segoe UI Emoji" font-size="85.41599972762083px" fill="#1e1e1e" text-anchor="start" style="white-space: pre;" direction="ltr" dominant-baseline="text-before-edge">#ToDoApp</text></g><g transform="translate(1472.5685659154667 846.4501160024358) rotate(0 53.61766815185547 72.30581048985614)"><text x="0" y="0" font-family="Virgil, Segoe UI Emoji" font-size="57.84464839188491px" fill="#1e1e1e" text-anchor="start" style="white-space: pre;" direction="ltr" dominant-baseline="text-before-edge">ALL</text><text x="0" y="72.30581048985614" font-family="Virgil, Segoe UI Emoji" font-size="57.84464839188491px" fill="#1e1e1e" text-anchor="start" style="white-space: pre;" direction="ltr" dominant-baseline="text-before-edge"></text></g><g transform="translate(2013.020634088323 840.7611468637742) rotate(0 94.59184265136719 78.51514194741914)"><text x="0" y="0" font-family="Virgil, Segoe UI Emoji" font-size="62.81211355793531px" fill="#1e1e1e" text-anchor="start" style="white-space: pre;" direction="ltr" dominant-baseline="text-before-edge">Active</text><text x="0" y="78.51514194741914" font-family="Virgil, Segoe UI Emoji" font-size="62.81211355793531px" fill="#1e1e1e" text-anchor="start" style="white-space: pre;" direction="ltr" dominant-baseline="text-before-edge"></text></g><g transform="translate(2790.513083038749 857.828054279759) rotate(0 141.27207946777355 73.35623767862401)"><text x="0" y="0" font-family="Virgil, Segoe UI Emoji" font-size="58.68499014289921px" fill="#1e1e1e" text-anchor="start" style="white-space: pre;" direction="ltr" dominant-baseline="text-before-edge">Completed</text><text x="0" y="73.35623767862401" font-family="Virgil, Segoe UI Emoji" font-size="58.68499014289921px" fill="#1e1e1e" text-anchor="start" style="white-space: pre;" direction="ltr" dominant-baseline="text-before-edge"></text></g><g stroke-linecap="round"><g transform="translate(1323.3925035773332 1033.6730725939133) rotate(0 -16.301576664147007 -277.0266003439295)"><path d="M0.39 -1.05 C-5.21 -93.67, -26.87 -462.83, -32.55 -555.06 M-0.86 1.01 C-6.62 -91.5, -27.37 -461.43, -32.99 -553.78" stroke="#1e1e1e" stroke-width="1" fill="none"></path></g><g transform="translate(1323.3925035773332 1033.6730725939133) rotate(0 -16.301576664147007 -277.0266003439295)"><path d="M-22.86 -524.63 C-26.63 -537.15, -30.18 -546.17, -34.27 -555.56 M-20.3 -526.72 C-26.56 -536.36, -30.73 -545.44, -32.69 -553.64" stroke="#1e1e1e" stroke-width="1" fill="none"></path></g><g transform="translate(1323.3925035773332 1033.6730725939133) rotate(0 -16.301576664147007 -277.0266003439295)"><path d="M-43.35 -523.44 C-39.23 -536.48, -34.88 -545.97, -34.27 -555.56 M-40.79 -525.53 C-39.84 -535.43, -36.79 -544.93, -32.69 -553.64" stroke="#1e1e1e" stroke-width="1" fill="none"></path></g></g><mask></mask><g transform="translate(1000.38412740655 323.0649552455643) rotate(0 152.45069885253906 70.77093161124807)"><text x="0" y="0" font-family="Virgil, Segoe UI Emoji" font-size="56.61674528899846px" fill="#1e1e1e" text-anchor="start" style="white-space: pre;" direction="ltr" dominant-baseline="text-before-edge">HomeScreen</text><text x="0" y="70.77093161124807" font-family="Virgil, Segoe UI Emoji" font-size="56.61674528899846px" fill="#1e1e1e" text-anchor="start" style="white-space: pre;" direction="ltr" dominant-baseline="text-before-edge"></text></g><g stroke-linecap="round" transform="translate(1927.6860970083985 1039.108864258147) rotate(0 332.8046946117063 431.5747171191503)"><path d="M32 0 M32 0 C230.8 0.98, 429.92 0.07, 633.61 0 M32 0 C214.68 0.88, 397.88 1.56, 633.61 0 M633.61 0 C653.72 0.05, 664.57 12.29, 665.61 32 M633.61 0 C656.09 -1.16, 663.36 8.93, 665.61 32 M665.61 32 C663.09 262.43, 662.73 490.95, 665.61 831.15 M665.61 32 C666.83 237.05, 667 442.57, 665.61 831.15 M665.61 831.15 C666.57 852.81, 653.57 862.09, 633.61 863.15 M665.61 831.15 C667.76 853.49, 653.23 865.43, 633.61 863.15 M633.61 863.15 C468.51 862.12, 302.73 860.96, 32 863.15 M633.61 863.15 C452.81 864.64, 272.1 864.52, 32 863.15 M32 863.15 C9.27 861.46, -1.45 853.65, 0 831.15 M32 863.15 C12.41 864.55, -1.3 853.56, 0 831.15 M0 831.15 C-2 602.75, -3.41 373.28, 0 32 M0 831.15 C1.73 530.93, 1.67 231.72, 0 32 M0 32 C-0.41 10.19, 12.36 1.45, 32 0 M0 32 C-0.45 11.96, 11.95 0.95, 32 0" stroke="#1e1e1e" stroke-width="1" fill="none"></path></g><g stroke-linecap="round"><g transform="translate(2251.1154280901587 1908.0580851546965) rotate(0 -2.5121976970500555 77.69267266451686)"><path d="M0.69 -0.02 C-0.1 26.08, -4.97 130.5, -5.72 156.46 M-0.4 -1.08 C-0.74 24.69, -2.86 128.33, -3.46 154.67" stroke="#1e1e1e" stroke-width="1" fill="none"></path></g><g transform="translate(2251.1154280901587 1908.0580851546965) rotate(0 -2.5121976970500555 77.69267266451686)"><path d="M-13.15 124.81 C-9.96 134.23, -9.04 139.78, -3.09 154.57 M-13.87 125.98 C-9.57 137.71, -4.66 148.64, -3.86 154.09" stroke="#1e1e1e" stroke-width="1" fill="none"></path></g><g transform="translate(2251.1154280901587 1908.0580851546965) rotate(0 -2.5121976970500555 77.69267266451686)"><path d="M7.36 125.25 C6.01 134.69, 2.38 140.14, -3.09 154.57 M6.65 126.42 C2.86 137.83, -0.3 148.58, -3.86 154.09" stroke="#1e1e1e" stroke-width="1" fill="none"></path></g></g><mask></mask><g transform="translate(1950.4989620798262 2124.269144833321) rotate(0 215.57489013671875 44.08131103279641)"><text x="0" y="0" font-family="Virgil, Segoe UI Emoji" font-size="70.53009765247424px" fill="#1e1e1e" text-anchor="start" style="white-space: pre;" direction="ltr" dominant-baseline="text-before-edge">ActiveScreen</text></g><g stroke-linecap="round" transform="translate(2619.761069037499 1045.4935108910583) rotate(0 345.161401315583 427.06410671250103)"><path d="M32 0 M32 0 C221.28 -2.35, 410.19 -1.63, 658.32 0 M32 0 C168.13 0.45, 305.19 0.6, 658.32 0 M658.32 0 C677.7 1.67, 689.45 9.59, 690.32 32 M658.32 0 C679.88 -1.65, 689.57 9.76, 690.32 32 M690.32 32 C687.66 296.24, 687.53 560.11, 690.32 822.13 M690.32 32 C692.35 218.82, 692.58 405.28, 690.32 822.13 M690.32 822.13 C689.68 842.07, 680.9 852.3, 658.32 854.13 M690.32 822.13 C690.11 843.92, 680.05 855.22, 658.32 854.13 M658.32 854.13 C447.37 852.97, 236.41 852.87, 32 854.13 M658.32 854.13 C481.49 855.02, 304.58 855.25, 32 854.13 M32 854.13 C11.89 852.84, -0.98 844.16, 0 822.13 M32 854.13 C12.33 852.38, 2.07 845.59, 0 822.13 M0 822.13 C-2.54 559.49, -3.09 297.17, 0 32 M0 822.13 C1.28 522.69, 1.31 222.8, 0 32 M0 32 C-0.38 9.79, 10.72 -1.23, 32 0 M0 32 C2.15 11.3, 9.88 1.77, 32 0" stroke="#1e1e1e" stroke-width="1" fill="none"></path></g><g stroke-linecap="round"><g transform="translate(2836.8019883223105 1904.8163404560887) rotate(0 -11.794728983817436 112.036618814625)"><path d="M0.39 -1.09 C-3.64 36.1, -19.99 186.41, -23.98 223.8 M-0.87 0.96 C-4.56 38.26, -18.51 187.97, -21.87 225.16" stroke="#1e1e1e" stroke-width="1" fill="none"></path></g><g transform="translate(2836.8019883223105 1904.8163404560887) rotate(0 -11.794728983817436 112.036618814625)"><path d="M-31.31 194.21 C-27.5 204.01, -26.02 213.12, -22.01 224.81 M-28.51 196.42 C-25.97 206.9, -24.94 215.91, -21.66 225.67" stroke="#1e1e1e" stroke-width="1" fill="none"></path></g><g transform="translate(2836.8019883223105 1904.8163404560887) rotate(0 -11.794728983817436 112.036618814625)"><path d="M-10.88 196.09 C-13.5 205.37, -18.44 213.88, -22.01 224.81 M-8.08 198.3 C-12.53 208.32, -18.48 216.69, -21.66 225.67" stroke="#1e1e1e" stroke-width="1" fill="none"></path></g></g><mask></mask><g transform="translate(2753.1454749696227 2164.0504588832528) rotate(0 239.41940307617176 75.62388118167416)"><text x="0" y="0" font-family="Virgil, Segoe UI Emoji" font-size="60.49910494533935px" fill="#1e1e1e" text-anchor="start" style="white-space: pre;" direction="ltr" dominant-baseline="text-before-edge">CompletedScreen</text><text x="0" y="75.62388118167418" font-family="Virgil, Segoe UI Emoji" font-size="60.49910494533935px" fill="#1e1e1e" text-anchor="start" style="white-space: pre;" direction="ltr" dominant-baseline="text-before-edge"></text></g><g stroke-linecap="round" transform="translate(798.1802024033525 10) rotate(0 1709.2512528863401 1223.512290940088)"><path d="M32 0 M32 0 C1345.9 -0.47, 2659.31 -0.21, 3386.5 0 M32 0 C1130.7 0.07, 2229.4 0.19, 3386.5 0 M3386.5 0 C3409.24 -1.51, 3419.47 9.75, 3418.5 32 M3386.5 0 C3407.55 1.9, 3417.36 11.29, 3418.5 32 M3418.5 32 C3417.65 601.63, 3416.74 1172.34, 3418.5 2415.02 M3418.5 32 C3426 873.96, 3426.23 1716.27, 3418.5 2415.02 M3418.5 2415.02 C3418.75 2435.32, 3408.38 2445.72, 3386.5 2447.02 M3418.5 2415.02 C3417.23 2435.62, 3408.19 2445.13, 3386.5 2447.02 M3386.5 2447.02 C2381.38 2456.17, 1377.15 2455.93, 32 2447.02 M3386.5 2447.02 C2372.39 2449.19, 1357.78 2449.25, 32 2447.02 M32 2447.02 C9.09 2448.11, -1.23 2437.36, 0 2415.02 M32 2447.02 C9.6 2445.48, 1.45 2435.63, 0 2415.02 M0 2415.02 C3.75 1605.57, 2.95 796.73, 0 32 M0 2415.02 C3.26 1531.3, 3.17 646.82, 0 32 M0 32 C-0.15 9.02, 10.06 -0.05, 32 0 M0 32 C0.33 10.16, 8.89 -0.81, 32 0" stroke="#1e1e1e" stroke-width="1" fill="none"></path></g><g stroke-linecap="round"><g transform="translate(4213.627746151214 58.879392397107154) rotate(0 102.04760340427356 58.44191864971714)"><path d="M-0.67 -0.59 C33.46 18.63, 170.48 96.62, 204.77 115.99 M1.17 1.72 C35.15 21.07, 169.98 98.3, 203.87 117.47" stroke="#1e1e1e" stroke-width="1" fill="none"></path></g><g transform="translate(4213.627746151214 58.879392397107154) rotate(0 102.04760340427356 58.44191864971714)"><path d="M173.31 112.58 C183.01 114.74, 191.3 116.73, 203.38 117.88 M175.21 111.6 C184.49 115.25, 196.34 115.31, 202.93 116.7" stroke="#1e1e1e" stroke-width="1" fill="none"></path></g><g transform="translate(4213.627746151214 58.879392397107154) rotate(0 102.04760340427356 58.44191864971714)"><path d="M183.47 94.75 C190.23 102.19, 195.47 109.52, 203.38 117.88 M185.37 93.77 C191.13 103.79, 199.33 110.26, 202.93 116.7" stroke="#1e1e1e" stroke-width="1" fill="none"></path></g></g><mask></mask><g transform="translate(4311.386530945429 196.3526835139711) rotate(0 200.5633544921875 236.6315598076399)"><text x="0" y="0" font-family="Virgil, Segoe UI Emoji" font-size="189.3052478461119px" fill="#1e1e1e" text-anchor="start" style="white-space: pre;" direction="ltr" dominant-baseline="text-before-edge">Main</text><text x="0" y="236.6315598076399" font-family="Virgil, Segoe UI Emoji" font-size="189.3052478461119px" fill="#1e1e1e" text-anchor="start" style="white-space: pre;" direction="ltr" dominant-baseline="text-before-edge"></text></g><g stroke-linecap="round" transform="translate(1235.0397719524974 1118.951215009368) rotate(0 300.91375944469087 352.84811386661715)"><path d="M32 0 M32 0 C152.56 1.15, 271.38 0.9, 569.83 0 M32 0 C241.6 -0.4, 451.11 -0.1, 569.83 0 M569.83 0 C589.73 0.94, 602.39 10.97, 601.83 32 M569.83 0 C592.04 -1.12, 602.65 8.48, 601.83 32 M601.83 32 C603.7 268.42, 603.9 504.69, 601.83 673.7 M601.83 32 C603.05 277.16, 602.64 522.4, 601.83 673.7 M601.83 673.7 C601.63 696.92, 591.11 704.72, 569.83 705.7 M601.83 673.7 C602.58 695.14, 593.18 707.97, 569.83 705.7 M569.83 705.7 C377.8 703.79, 187.05 703.57, 32 705.7 M569.83 705.7 C369.48 706.67, 168.94 706.46, 32 705.7 M32 705.7 C9.57 703.9, -1.63 693.52, 0 673.7 M32 705.7 C8.76 705.41, 2.13 694.89, 0 673.7 M0 673.7 C1.71 464.31, 0.95 254.17, 0 32 M0 673.7 C1.58 498.36, 1.15 323.19, 0 32 M0 32 C1.05 10.95, 9.38 0.1, 32 0 M0 32 C0.07 9.24, 10.85 0.36, 32 0" stroke="#1e1e1e" stroke-width="1" fill="none"></path></g><g stroke-linecap="round"><g transform="translate(1195.3252656298478 1345.0184048459885) rotate(0 -324.4500907990059 -108.03209754993054)"><path d="M-0.21 -0.67 C-108.32 -36.81, -540.61 -181.55, -648.69 -217.65 M-1.79 1.59 C-109.52 -34.34, -539.1 -180.22, -646.52 -216.51" stroke="#1e1e1e" stroke-width="1" fill="none"></path></g><g transform="translate(1195.3252656298478 1345.0184048459885) rotate(0 -324.4500907990059 -108.03209754993054)"><path d="M-617.65 -218.91 C-626.59 -218.69, -634.77 -215.3, -645.22 -215.94 M-616.94 -217.01 C-624.43 -216.93, -630.83 -216.08, -646.46 -217.38" stroke="#1e1e1e" stroke-width="1" fill="none"></path></g><g transform="translate(1195.3252656298478 1345.0184048459885) rotate(0 -324.4500907990059 -108.03209754993054)"><path d="M-624.23 -199.47 C-631.11 -204.95, -637.36 -207.27, -645.22 -215.94 M-623.52 -197.57 C-629.39 -202.01, -634.28 -205.65, -646.46 -217.38" stroke="#1e1e1e" stroke-width="1" fill="none"></path></g></g><mask></mask><g transform="translate(10 1033.4122783144305) rotate(0 197.08181762695312 38.46717721096323)"><text x="0" y="0" font-family="Virgil, Segoe UI Emoji" font-size="61.547483537541176px" fill="#1e1e1e" text-anchor="start" style="white-space: pre;" direction="ltr" dominant-baseline="text-before-edge">TaskContext</text></g><g stroke-linecap="round" transform="translate(1308.358860548158 1207.5451137291248) rotate(0 239.81451894830684 53.46183543433597)"><path d="M26.73 0 M26.73 0 C172.03 -0.51, 317.48 -1.04, 452.9 0 M26.73 0 C152.2 1.77, 276.76 1.61, 452.9 0 M452.9 0 C472.43 -1.61, 480.67 7.91, 479.63 26.73 M452.9 0 C470.08 -1.28, 477.87 10.47, 479.63 26.73 M479.63 26.73 C480.74 39.6, 477.56 56.32, 479.63 80.19 M479.63 26.73 C480.71 44.45, 479.86 59.84, 479.63 80.19 M479.63 80.19 C479.54 98.34, 471.04 108.69, 452.9 106.92 M479.63 80.19 C478.1 95.73, 469.47 104.77, 452.9 106.92 M452.9 106.92 C338.51 108.58, 222.73 107.11, 26.73 106.92 M452.9 106.92 C367.01 105.16, 281.73 105.33, 26.73 106.92 M26.73 106.92 C9.18 105.48, -0.72 99.72, 0 80.19 M26.73 106.92 C6.67 107.22, -0.18 95.92, 0 80.19 M0 80.19 C0.24 59.92, -1.65 42.09, 0 26.73 M0 80.19 C-0.26 62.99, 1.09 45.87, 0 26.73 M0 26.73 C-0.73 9.07, 8.12 -0.26, 26.73 0 M0 26.73 C1.53 9.83, 10.14 -0.79, 26.73 0" stroke="#1e1e1e" stroke-width="1" fill="none"></path></g><g stroke-linecap="round" transform="translate(2005.7253161324768 1186.9954934809327) rotate(0 239.81451894830684 53.46183543433597)"><path d="M26.73 0 M26.73 0 C154.72 1.29, 282.7 0.6, 452.9 0 M26.73 0 C140.06 -1.17, 253.89 -0.78, 452.9 0 M452.9 0 C472.67 -0.57, 478.85 10.55, 479.63 26.73 M452.9 0 C472.54 -0.94, 481.37 8.07, 479.63 26.73 M479.63 26.73 C481.13 39.95, 478.98 54.21, 479.63 80.19 M479.63 26.73 C480.28 39.69, 480.91 52.31, 479.63 80.19 M479.63 80.19 C478.82 96.95, 470.17 106.11, 452.9 106.92 M479.63 80.19 C478.72 99, 471.1 105.27, 452.9 106.92 M452.9 106.92 C330.29 107.01, 207.35 106.11, 26.73 106.92 M452.9 106.92 C330.27 107.41, 207.2 108.3, 26.73 106.92 M26.73 106.92 C10.2 108.14, 0.54 97.45, 0 80.19 M26.73 106.92 C7.36 105.91, 0.01 97.06, 0 80.19 M0 80.19 C0.34 66.34, -1.59 50.55, 0 26.73 M0 80.19 C0.61 66.72, 0.13 54.04, 0 26.73 M0 26.73 C-1.12 7.12, 10.51 0.14, 26.73 0 M0 26.73 C-0.13 7.95, 10.94 -0.71, 26.73 0" stroke="#1e1e1e" stroke-width="1" fill="none"></path></g><g transform="translate(1351.1283288956267 1222.8199238532206) rotate(0 188.58041381835938 36.34483169846422)"><text x="0" y="0" font-family="Virgil, Segoe UI Emoji" font-size="58.15173071754275px" fill="#1e1e1e" text-anchor="start" style="white-space: pre;" direction="ltr" dominant-baseline="text-before-edge">AddTaskForm</text></g><g stroke-linecap="round" transform="translate(1351.1283288956267 1351.128328895627) rotate(0 212.3198607249342 210.7923797125245)"><path d="M32 0 M32 0 C149.01 -2.88, 265.71 -2.5, 392.64 0 M32 0 C138.41 0.59, 243.82 0.94, 392.64 0 M392.64 0 C413.89 1.24, 425.02 10.3, 424.64 32 M392.64 0 C411.95 -1.04, 423.7 10.21, 424.64 32 M424.64 32 C424.62 139.57, 424.92 246.69, 424.64 389.58 M424.64 32 C425.88 146.93, 426.2 261.74, 424.64 389.58 M424.64 389.58 C424.22 412.39, 413.4 419.79, 392.64 421.58 M424.64 389.58 C423.19 410.03, 412.54 420.64, 392.64 421.58 M392.64 421.58 C311.5 420.37, 233.31 420.59, 32 421.58 M392.64 421.58 C291.05 419.84, 189.2 419.07, 32 421.58 M32 421.58 C11.79 421.06, -0.89 411.38, 0 389.58 M32 421.58 C12.93 421.25, -0.73 410.46, 0 389.58 M0 389.58 C-0.85 258.72, -0.44 128.85, 0 32 M0 389.58 C-1.46 308.77, -2.27 227.04, 0 32 M0 32 C-0.73 10.16, 9.75 -1.57, 32 0 M0 32 C-2.11 11.42, 10.05 1.69, 32 0" stroke="#1e1e1e" stroke-width="1" fill="none"></path></g><g transform="translate(1393.8977972430955 1400.007721292734) rotate(0 136.21876525878906 38.46717721096309)"><text x="0" y="0" font-family="Virgil, Segoe UI Emoji" font-size="61.54748353754089px" fill="#1e1e1e" text-anchor="start" style="white-space: pre;" direction="ltr" dominant-baseline="text-before-edge">TaskList</text></g><g stroke-linecap="round" transform="translate(1421.3924554664684 1506.931392161406) rotate(0 154.2755822533693 82.4839746701183)"><path d="M32 0 M32 0 C101.37 0.8, 170.48 1.46, 276.55 0 M32 0 C120.82 -1.97, 208.41 -2.38, 276.55 0 M276.55 0 C297.81 -0.35, 308.42 11.91, 308.55 32 M276.55 0 C298.55 1.26, 308.5 12.69, 308.55 32 M308.55 32 C310.29 51.04, 310.44 72.09, 308.55 132.97 M308.55 32 C308.48 68.8, 307.58 104.73, 308.55 132.97 M308.55 132.97 C308.84 155.82, 296.23 164.87, 276.55 164.97 M308.55 132.97 C309.37 156.3, 295.79 166.67, 276.55 164.97 M276.55 164.97 C213.2 165.43, 151.15 166.08, 32 164.97 M276.55 164.97 C221.36 165.81, 165.99 165.68, 32 164.97 M32 164.97 C10.74 166.86, 1.29 153, 0 132.97 M32 164.97 C12.75 164.51, -1.76 154.14, 0 132.97 M0 132.97 C-1.34 97.68, -1.18 62.14, 0 32 M0 132.97 C-0.31 96.16, 0.84 60.39, 0 32 M0 32 C-1.07 12.61, 10.98 1.11, 32 0 M0 32 C-0.14 8.51, 12.45 2.19, 32 0" stroke="#1e1e1e" stroke-width="1" fill="none"></path></g><g transform="translate(1445.8321516650215 1552.7558225336938) rotate(0 124.53270721435547 32.35725316132482)"><text x="0" y="0" font-family="Virgil, Segoe UI Emoji" font-size="51.77160505811969px" fill="#1e1e1e" text-anchor="start" style="white-space: pre;" direction="ltr" dominant-baseline="text-before-edge">TaskCard</text></g><g stroke-linecap="round" transform="translate(1977.3955439835631 1109.7863289349095) rotate(0 282.5839872957754 366.59544297830337)"><path d="M32 0 M32 0 C133.03 0, 234.45 0.22, 533.17 0 M32 0 C141.06 -0.98, 249.87 -0.48, 533.17 0 M533.17 0 C554.46 -1.49, 564.13 12.37, 565.17 32 M533.17 0 C556.21 -2.2, 567.08 10.98, 565.17 32 M565.17 32 C564.17 239.1, 563.12 445.65, 565.17 701.19 M565.17 32 C564.96 173.87, 565.37 316.49, 565.17 701.19 M565.17 701.19 C565.51 724, 553.2 733.06, 533.17 733.19 M565.17 701.19 C564.43 723.49, 556.2 731.77, 533.17 733.19 M533.17 733.19 C429.96 732.43, 326 731.63, 32 733.19 M533.17 733.19 C404.66 732.46, 275.77 732.15, 32 733.19 M32 733.19 C11.56 734.54, -1.79 724.32, 0 701.19 M32 733.19 C12.36 731.22, -0.04 722.39, 0 701.19 M0 701.19 C0.91 490.54, 1.7 279.18, 0 32 M0 701.19 C-1.14 448.98, -1.33 197.46, 0 32 M0 32 C1.27 9.86, 10.97 1.75, 32 0 M0 32 C-2.17 10.13, 9.82 1.33, 32 0" stroke="#1e1e1e" stroke-width="1" fill="none"></path></g><g stroke-linecap="round"><g transform="translate(1977.3955439835627 1128.1161010838248) rotate(0 -724.014618806618 -12.315694569079653)"><path d="M0.98 -0.91 C-240.62 -5.06, -1207.37 -19.93, -1449.01 -23.98 M0.03 1.23 C-241.25 -3.37, -1205.73 -21.61, -1446.8 -25.86" stroke="#1e1e1e" stroke-width="1" fill="none"></path></g><g transform="translate(1977.3955439835627 1128.1161010838248) rotate(0 -724.014618806618 -12.315694569079653)"><path d="M-1419.94 -37.19 C-1427.48 -33.3, -1439.4 -27.14, -1445.29 -26.32 M-1418.96 -35.63 C-1428.88 -32.84, -1437.24 -28.3, -1446.83 -26.64" stroke="#1e1e1e" stroke-width="1" fill="none"></path></g><g transform="translate(1977.3955439835627 1128.1161010838248) rotate(0 -724.014618806618 -12.315694569079653)"><path d="M-1420.31 -16.67 C-1427.89 -19.95, -1439.68 -20.95, -1445.29 -26.32 M-1419.33 -15.11 C-1429.31 -19.24, -1437.55 -21.62, -1446.83 -26.64" stroke="#1e1e1e" stroke-width="1" fill="none"></path></g></g><mask></mask><g stroke-linecap="round" transform="translate(2649.487189443786 1079.2367086867173) rotate(0 305.49620248191957 375.760329052761)"><path d="M32 0 M32 0 C177.55 -1.13, 323.96 -1.21, 578.99 0 M32 0 C236.51 0.32, 441.13 0.63, 578.99 0 M578.99 0 C601.45 -0.84, 611.17 9.04, 610.99 32 M578.99 0 C598.09 -2.07, 611.96 9.54, 610.99 32 M610.99 32 C610.71 277.38, 609.68 522.42, 610.99 719.52 M610.99 32 C613.7 270.8, 613.33 510.66, 610.99 719.52 M610.99 719.52 C609.89 739.25, 599.99 750.53, 578.99 751.52 M610.99 719.52 C610.19 741.36, 600.96 749.91, 578.99 751.52 M578.99 751.52 C433.42 752.67, 288.94 752.65, 32 751.52 M578.99 751.52 C422.88 752.14, 267.18 752.36, 32 751.52 M32 751.52 C12.61 750.56, -1.32 742.67, 0 719.52 M32 751.52 C8.4 753.77, 0.33 740.88, 0 719.52 M0 719.52 C-2.57 460.7, -1.8 203.08, 0 32 M0 719.52 C-1.87 523.8, -2.15 327.48, 0 32 M0 32 C-0.01 12.48, 10.66 1.12, 32 0 M0 32 C-0.33 9.59, 12.82 2.26, 32 0" stroke="#1e1e1e" stroke-width="1" fill="none"></path></g><g stroke-linecap="round"><g transform="translate(2658.6520755182437 1100.621442860452) rotate(0 -1080.2985959468074 -15.152140668272509)"><path d="M0.17 0.67 C-360.13 -4.14, -1800.96 -24.33, -2160.76 -29.44 M-1.21 -0.02 C-361.22 -5.09, -1798.92 -25.64, -2158.53 -30.97" stroke="#1e1e1e" stroke-width="1" fill="none"></path></g><g transform="translate(2658.6520755182437 1100.621442860452) rotate(0 -1080.2985959468074 -15.152140668272509)"><path d="M-2129.07 -42.33 C-2139.33 -35.01, -2151.17 -34.97, -2159.7 -30.54 M-2130.27 -41.09 C-2137.18 -38.45, -2143.07 -35.25, -2158.63 -31.9" stroke="#1e1e1e" stroke-width="1" fill="none"></path></g><g transform="translate(2658.6520755182437 1100.621442860452) rotate(0 -1080.2985959468074 -15.152140668272509)"><path d="M-2129.37 -21.81 C-2139.42 -22.42, -2151.14 -30.3, -2159.7 -30.54 M-2130.57 -20.57 C-2137.36 -22.66, -2143.18 -24.18, -2158.63 -31.9" stroke="#1e1e1e" stroke-width="1" fill="none"></path></g></g><mask></mask><g stroke-linecap="round" transform="translate(2716.696353989808 1192.2703036050277) rotate(0 252.03436704758371 175.6603164271038)"><path d="M32 0 M32 0 C172.34 -0.42, 312.03 0.72, 472.07 0 M32 0 C121.84 1.15, 210.92 1.13, 472.07 0 M472.07 0 C491.54 1, 503.56 11.73, 504.07 32 M472.07 0 C493.13 1.14, 503.7 11.64, 504.07 32 M504.07 32 C503.4 110.28, 504.52 186.67, 504.07 319.32 M504.07 32 C503.1 111.36, 502.35 189.49, 504.07 319.32 M504.07 319.32 C504.56 339.8, 495.2 351.25, 472.07 351.32 M504.07 319.32 C505.79 342.87, 492.23 350.62, 472.07 351.32 M472.07 351.32 C331.66 351.69, 188.88 352.88, 32 351.32 M472.07 351.32 C362.19 351.19, 252.4 351.55, 32 351.32 M32 351.32 C10.82 351.34, -1.91 341.51, 0 319.32 M32 351.32 C11.39 351.89, -1.25 340.92, 0 319.32 M0 319.32 C-3.06 258.81, -1.85 197.59, 0 32 M0 319.32 C-1.13 234.43, 0.27 148.53, 0 32 M0 32 C-0.37 11.68, 9.29 -0.17, 32 0 M0 32 C-0.56 11.69, 8.75 1.58, 32 0" stroke="#1e1e1e" stroke-width="1" fill="none"></path></g><g transform="translate(2762.5207843620965 1348.0733668708067) rotate(0 191.9018554687501 35.41221518614395)"><text x="0" y="0" font-family="Virgil, Segoe UI Emoji" font-size="56.65954429783036px" fill="#1e1e1e" text-anchor="start" style="white-space: pre;" direction="ltr" dominant-baseline="text-before-edge">TaskDoneList</text></g><g stroke-linecap="round" transform="translate(2713.6413919649895 1644.4046832782687) rotate(0 244.39696198553554 73.31908859566067)"><path d="M32 0 M32 0 C191.51 0.83, 348.82 -0.56, 456.79 0 M32 0 C159.15 1.54, 285.57 1.92, 456.79 0 M456.79 0 C479.85 0.85, 487.6 11.82, 488.79 32 M456.79 0 C477.2 0.18, 487.64 10.53, 488.79 32 M488.79 32 C488.41 62.25, 487.54 91.6, 488.79 114.64 M488.79 32 C488.38 56.98, 488.62 80.06, 488.79 114.64 M488.79 114.64 C487.96 134.82, 477.65 146.09, 456.79 146.64 M488.79 114.64 C487.4 134.93, 477.55 144.61, 456.79 146.64 M456.79 146.64 C367.58 145.84, 277.82 146.21, 32 146.64 M456.79 146.64 C332.31 145.05, 208.82 145.25, 32 146.64 M32 146.64 C11.19 147.39, 0.55 135.62, 0 114.64 M32 146.64 C9.59 147.7, -2.15 136.33, 0 114.64 M0 114.64 C1.99 86.08, -0.27 54.48, 0 32 M0 114.64 C-0.87 93.92, -0.78 73.98, 0 32 M0 32 C1.88 11.19, 10.13 0.56, 32 0 M0 32 C-0.62 9.38, 11.33 -0.66, 32 0" stroke="#1e1e1e" stroke-width="1" fill="none"></path></g><g transform="translate(2762.5207843620965 1681.064227576099) rotate(0 194.24673461914074 30.829772148915254)"><text x="0" y="0" font-family="Virgil, Segoe UI Emoji" font-size="49.327635438264394px" fill="#1e1e1e" text-anchor="start" style="white-space: pre;" direction="ltr" dominant-baseline="text-before-edge">DeleteAllButton</text></g><g transform="translate(2108.7589110507884 1216.7099998035815) rotate(0 145.80523681640625 28.102173827390175)"><text x="0" y="0" font-family="Virgil, Segoe UI Emoji" font-size="44.963478123824274px" fill="#1e1e1e" text-anchor="start" style="white-space: pre;" direction="ltr" dominant-baseline="text-before-edge">AddTaskForm</text></g></svg>